<svg width="139" height="42" viewBox="0 0 139 42" fill="none" xmlns="http://www.w3.org/2000/svg">
<path d="M20.6505 0C23.3624 0 26.0484 0.534471 28.5539 1.57227C31.0592 2.61006 33.3356 4.13134 35.2531 6.04883C37.1706 7.96638 38.6919 10.2427 39.7296 12.748C40.7674 15.2534 41.3019 17.9386 41.3019 20.6504C41.3019 24.7347 40.0906 28.728 37.8214 32.124C35.5524 35.5198 32.3271 38.1665 28.5539 39.7295C24.7805 41.2925 20.6281 41.7011 16.6222 40.9043C12.6165 40.1075 8.93701 38.1409 6.04899 35.2529C3.16098 32.3649 1.19348 28.6855 0.396642 24.6797C-0.40017 20.6738 0.00942076 16.5215 1.57242 12.748C3.13541 8.97471 5.78199 5.74958 9.17789 3.48047C12.5738 1.2114 16.5663 6.16858e-05 20.6505 0ZM14.2013 14.1064C12.0094 14.1064 10.2136 14.8201 8.81559 16.2461C7.46276 17.7006 6.71267 19.6152 6.71793 21.6016C6.72329 23.5879 7.48342 25.498 8.84391 26.9453C10.2608 28.3624 12.1413 29.0713 14.4845 29.0713C17.205 29.0714 19.2646 28.0601 20.6632 26.0381L17.715 24.3379C16.9968 25.2827 15.9383 25.7549 14.5402 25.7549C12.3675 25.7546 11.0354 24.8668 10.5441 23.0908L21.2296 23.0918C21.321 22.5964 21.3682 22.0936 21.3713 21.5898C21.4255 19.6158 20.6972 17.6999 19.3449 16.2607C18.69 15.5565 17.8921 15.0003 17.005 14.6289C16.1181 14.2576 15.1624 14.0789 14.2013 14.1064ZM30.5597 14.1055C29.5703 14.0946 28.5884 14.2802 27.6711 14.6514C26.7539 15.0225 25.9195 15.5718 25.216 16.2676C24.5125 16.9634 23.9536 17.792 23.5724 18.7051C23.1912 19.6183 22.9943 20.5983 22.9943 21.5879C22.9943 22.5775 23.1912 23.5574 23.5724 24.4707C23.9537 25.3839 24.5124 26.2123 25.216 26.9082C25.9196 27.6041 26.7537 28.1542 27.6711 28.5254C28.4738 28.8502 29.3261 29.0321 30.1896 29.0654L30.5617 29.0703C31.8863 29.0847 33.1899 28.7369 34.3312 28.0645C35.4345 27.4248 36.345 26.4991 36.967 25.3857L33.7921 23.5723C33.5143 24.1522 33.0641 24.6319 32.5031 24.9463C31.9021 25.2833 31.2223 25.4546 30.5334 25.4424C30.0292 25.4578 29.527 25.3693 29.0588 25.1816C28.5906 24.9939 28.1666 24.711 27.8127 24.3516C27.1198 23.5925 26.7355 22.602 26.7355 21.5742C26.7355 20.5464 27.1198 19.556 27.8127 18.7969C28.1666 18.4375 28.5906 18.1546 29.0588 17.9668C29.527 17.779 30.0291 17.6898 30.5334 17.7051C31.2147 17.6955 31.8861 17.8715 32.4748 18.2148C33.0347 18.5374 33.4836 19.0223 33.7638 19.6045L36.9093 17.7617C36.3221 16.6452 35.4262 15.7208 34.3293 15.0977C33.1851 14.4336 31.8826 14.0908 30.5597 14.1055ZM14.2004 17.3936C14.9991 17.3833 15.7801 17.6315 16.4259 18.1016C17.1126 18.6307 17.5729 19.4007 17.715 20.2559H10.4865C10.6489 19.4234 11.1013 18.6754 11.7629 18.1445C12.4663 17.6243 13.3261 17.3594 14.2004 17.3936Z" fill="#F7CA11"/>
<path d="M50.7342 26.9029C49.6851 27.9429 48.3516 28.6492 46.9017 28.9327C45.4519 29.2162 43.9506 29.0642 42.587 28.4959C41.2234 27.9276 40.0585 26.9684 39.2391 25.7392C38.4197 24.51 37.9824 23.0658 37.9824 21.5885C37.9824 20.1112 38.4197 18.667 39.2391 17.4378C40.0585 16.2085 41.2234 15.2494 42.587 14.6811C43.9506 14.1128 45.4519 13.9608 46.9017 14.2443C48.3516 14.5278 49.6851 15.2341 50.7342 16.2741C52.1325 17.6895 52.9166 19.5989 52.9166 21.5885C52.9166 23.5781 52.1325 25.4875 50.7342 26.9029V26.9029ZM42.6704 24.3943C43.0255 24.757 43.4518 25.0424 43.9225 25.2326C44.3932 25.4228 44.8981 25.5137 45.4055 25.4996C45.915 25.5128 46.4218 25.4216 46.8947 25.2315C47.3676 25.0414 47.7965 24.7565 48.1551 24.3943C48.8655 23.6326 49.2605 22.6299 49.2605 21.5883C49.2605 20.5468 48.8655 19.5441 48.1551 18.7824C47.7965 18.4202 47.3676 18.1353 46.8947 17.9452C46.4218 17.7551 45.915 17.6639 45.4055 17.6771C44.8981 17.663 44.3932 17.7539 43.9225 17.9441C43.4518 18.1343 43.0255 18.4197 42.6704 18.7824C41.9685 19.5483 41.5792 20.5495 41.5792 21.5883C41.5792 22.6272 41.9685 23.6284 42.6704 24.3943" fill="#271C47"/>
<path d="M63.377 14.1058C64.0904 14.0844 64.8004 14.2119 65.4617 14.4803C66.123 14.7487 66.7211 15.152 67.2177 15.6645C68.2282 16.7041 68.7335 18.1401 68.7337 19.9725V28.6738H65.0776V20.4268C65.0776 19.4829 64.8224 18.7599 64.3121 18.2578C64.0396 18.0023 63.7186 17.8042 63.3681 17.6752C63.0176 17.5462 62.6447 17.4889 62.2717 17.5067C61.8534 17.4874 61.4356 17.5556 61.0452 17.7069C60.6547 17.8582 60.3001 18.0894 60.0041 18.3855C59.4373 18.9714 59.1539 19.85 59.1539 21.0215V28.6735H55.4976V14.502H59.1539V16.089C60.0416 14.7665 61.4493 14.1051 63.377 14.1049" fill="#271C47"/>
<path d="M80.9252 14.5027H84.95L79.5647 28.6742H75.3983L70.0127 14.5027H74.0375L77.4719 24.4207L80.9252 14.5027Z" fill="#271C47"/>
<path d="M89.2232 23.0911C89.714 24.8673 91.0461 25.7556 93.2194 25.7558C94.618 25.7558 95.6763 25.2833 96.3943 24.3383L99.3422 26.0389C97.9435 28.061 95.8839 29.0719 93.1633 29.0717C90.8198 29.0717 88.9396 28.3631 87.5229 26.946C86.1622 25.4986 85.4023 23.5883 85.397 21.6017C85.3917 19.6151 86.1415 17.7008 87.4946 16.2462C88.8924 14.8203 90.6875 14.1073 92.8799 14.1073C93.8411 14.0797 94.7972 14.2576 95.6842 14.629C96.5712 15.0005 97.3688 15.557 98.0236 16.2613C99.3762 17.7003 100.105 19.6158 100.05 21.5899C100.047 22.0938 100 22.5964 99.9088 23.092L89.2232 23.0911ZM89.1668 20.2566H96.3931C96.2511 19.4012 95.7903 18.6315 95.1035 18.1023C94.4577 17.6323 93.6773 17.3838 92.8787 17.394C92.0043 17.3597 91.1444 17.6247 90.4409 18.1451C89.7794 18.6759 89.3276 19.424 89.1656 20.2566" fill="#271C47"/>
<path d="M106.261 16.9399C106.562 16.0802 107.16 15.3564 107.948 14.8992C108.745 14.4423 109.65 14.2074 110.569 14.2189V18.3004C109.523 18.1528 108.458 18.3949 107.579 18.9806C106.7 19.5665 106.261 20.5396 106.261 21.9001V28.6742H102.605V14.5027H106.261V16.9399Z" fill="#271C47"/>
<path d="M115.615 18.5274C115.615 18.9056 115.865 19.2126 116.366 19.4484C116.953 19.715 117.566 19.9238 118.194 20.072C118.925 20.2559 119.644 20.4831 120.348 20.7522C121.073 21.0318 121.706 21.5078 122.176 22.1268C122.693 22.8212 122.958 23.6714 122.927 24.5369C122.927 25.9922 122.384 27.1118 121.298 27.8956C120.211 28.6795 118.856 29.0712 117.231 29.0706C114.32 29.0706 112.336 27.9464 111.278 25.698L114.453 23.9124C114.868 25.1407 115.794 25.7548 117.231 25.7546C118.535 25.7546 119.186 25.3483 119.186 24.5357C119.186 24.1581 118.936 23.8511 118.436 23.6148C117.847 23.3476 117.235 23.1341 116.607 22.977C115.876 22.7838 115.157 22.5473 114.453 22.2687C113.737 21.9866 113.107 21.5224 112.625 20.9221C112.11 20.265 111.844 19.4466 111.874 18.6121C111.848 17.9782 111.975 17.3473 112.244 16.7727C112.512 16.1981 112.915 15.6965 113.419 15.3103C114.524 14.4824 115.879 14.0572 117.259 14.1052C118.357 14.0919 119.441 14.3602 120.406 14.8846C121.346 15.4009 122.122 16.1722 122.645 17.1097L119.526 18.81C119.344 18.3643 119.028 17.986 118.622 17.7271C118.216 17.4682 117.739 17.3413 117.258 17.3639C116.844 17.3485 116.435 17.4571 116.083 17.6757C115.938 17.7641 115.818 17.8891 115.736 18.0383C115.654 18.1875 115.613 18.3557 115.616 18.5259" fill="#271C47"/>
<path d="M128.172 23.0906C128.662 24.8669 129.995 25.7551 132.168 25.7553C133.566 25.7553 134.625 25.2828 135.342 24.3378L138.29 26.0385C136.892 28.0605 134.832 29.0714 132.111 29.0712C129.768 29.0712 127.888 28.3627 126.471 26.9455C125.11 25.4984 124.35 23.5881 124.345 21.6016C124.339 19.615 125.088 17.7005 126.441 16.2457C127.839 14.8198 129.634 14.1068 131.826 14.1068C132.788 14.0792 133.744 14.2571 134.631 14.6285C135.518 15 136.316 15.5565 136.97 16.2608C138.323 17.6998 139.052 19.6153 138.997 21.5895C138.994 22.0933 138.947 22.596 138.855 23.0915L128.172 23.0906ZM128.115 20.2561H135.342C135.201 19.4007 134.74 18.6309 134.053 18.1018C133.407 17.6318 132.627 17.3833 131.828 17.3935C130.954 17.3593 130.094 17.6242 129.39 18.1446C128.729 18.6756 128.277 19.4237 128.115 20.2561" fill="#271C47"/>
<path d="M50.733 26.9036C49.6838 27.9437 48.3503 28.6499 46.9005 28.9334C45.4507 29.2169 43.9494 29.0649 42.5858 28.4966C41.2222 27.9284 40.0573 26.9692 39.2379 25.74C38.4184 24.5108 37.9812 23.0665 37.9812 21.5892C37.9812 20.1119 38.4184 18.6677 39.2379 17.4385C40.0573 16.2093 41.2222 15.2501 42.5858 14.6818C43.9494 14.1135 45.4507 13.9616 46.9005 14.245C48.3503 14.5285 49.6838 15.2348 50.733 16.2749C52.1313 17.6902 52.9154 19.5996 52.9154 21.5892C52.9154 23.5788 52.1313 25.4882 50.733 26.9036V26.9036ZM42.6692 24.395C43.0243 24.7577 43.4506 25.0431 43.9213 25.2334C44.3919 25.4236 44.8968 25.5144 45.4043 25.5003C45.9138 25.5135 46.4206 25.4223 46.8935 25.2322C47.3664 25.0421 47.7953 24.7572 48.1539 24.395C48.8642 23.6333 49.2593 22.6306 49.2593 21.5891C49.2593 20.5476 48.8642 19.5448 48.1539 18.7832C47.7953 18.421 47.3664 18.1361 46.8935 17.946C46.4206 17.7559 45.9138 17.6646 45.4043 17.6778C44.8968 17.6637 44.3919 17.7546 43.9213 17.9448C43.4506 18.135 43.0243 18.4204 42.6692 18.7832C41.9673 19.5491 41.5779 20.5502 41.5779 21.5891C41.5779 22.6279 41.9673 23.6291 42.6692 24.395" fill="#271C47"/>
<path d="M63.3758 14.1058C64.0891 14.0844 64.7991 14.2119 65.4604 14.4803C66.1218 14.7487 66.7198 15.152 67.2165 15.6645C68.2269 16.7041 68.7322 18.1401 68.7324 19.9725V28.6738H65.0764V20.4268C65.0764 19.4829 64.8212 18.7599 64.3109 18.2578C64.0384 18.0023 63.7174 17.8042 63.3669 17.6752C63.0164 17.5462 62.6435 17.4889 62.2704 17.5067C61.8521 17.4874 61.4344 17.5556 61.044 17.7069C60.6535 17.8582 60.2989 18.0894 60.0029 18.3855C59.4361 18.9714 59.1527 19.85 59.1527 21.0215V28.6735H55.4963V14.502H59.1527V16.089C60.0404 14.7665 61.4481 14.1051 63.3758 14.1049" fill="#271C47"/>
<path d="M80.924 14.5022H84.9488L79.5635 28.6737H75.3971L70.0115 14.5022H74.0363L77.4706 24.4202L80.924 14.5022Z" fill="#271C47"/>
<path d="M89.222 23.0911C89.7128 24.8673 91.0449 25.7556 93.2182 25.7558C94.6168 25.7558 95.6751 25.2833 96.3931 24.3383L99.3409 26.0389C97.9423 28.061 95.8827 29.0719 93.1621 29.0717C90.8185 29.0717 88.9384 28.3631 87.5217 26.946C86.1609 25.4986 85.401 23.5883 85.3958 21.6017C85.3905 19.6151 86.1403 17.7008 87.4933 16.2462C88.8912 14.8203 90.6863 14.1073 92.8786 14.1073C93.8399 14.0797 94.796 14.2576 95.683 14.629C96.57 15.0005 97.3676 15.557 98.0223 16.2613C99.3749 17.7003 100.104 19.6158 100.049 21.5899C100.046 22.0938 99.9988 22.5964 99.9076 23.092L89.222 23.0911ZM89.1656 20.2566H96.3919C96.2499 19.4012 95.7891 18.6315 95.1022 18.1023C94.4565 17.6323 93.676 17.3838 92.8774 17.394C92.0031 17.3597 91.1431 17.6247 90.4396 18.1451C89.7782 18.6759 89.3263 19.424 89.1644 20.2566" fill="#271C47"/>
<path d="M106.261 16.9399C106.562 16.0802 107.16 15.3564 107.948 14.8992C108.745 14.4423 109.65 14.2074 110.569 14.2189V18.3004C109.523 18.1528 108.458 18.3949 107.579 18.9806C106.7 19.5665 106.261 20.5396 106.261 21.9001V28.6742H102.605V14.5027H106.261V16.9399Z" fill="#271C47"/>
<path d="M115.613 18.5276C115.613 18.9058 115.864 19.2128 116.364 19.4486C116.952 19.7152 117.564 19.9241 118.193 20.0722C118.923 20.2562 119.643 20.4833 120.347 20.7524C121.072 21.032 121.705 21.508 122.175 22.1271C122.692 22.8215 122.957 23.6717 122.926 24.5372C122.926 25.9924 122.383 27.112 121.296 27.8959C120.21 28.6798 118.854 29.0714 117.229 29.0708C114.319 29.0708 112.335 27.9466 111.277 25.6982L114.452 23.9127C114.867 25.141 115.793 25.755 117.23 25.7548C118.533 25.7548 119.185 25.3486 119.185 24.536C119.185 24.1584 118.935 23.8514 118.434 23.615C117.845 23.3478 117.233 23.1344 116.606 22.9772C115.875 22.784 115.155 22.5475 114.452 22.269C113.736 21.9868 113.106 21.5227 112.624 20.9224C112.108 20.2652 111.842 19.4469 111.873 18.6123C111.847 17.9784 111.974 17.3476 112.242 16.773C112.511 16.1983 112.914 15.6968 113.418 15.3105C114.523 14.4827 115.878 14.0575 117.258 14.1055C118.356 14.0921 119.439 14.3604 120.404 14.8848C121.345 15.4012 122.121 16.1724 122.643 17.1099L119.525 18.8102C119.342 18.3645 119.027 17.9863 118.62 17.7274C118.214 17.4685 117.738 17.3416 117.257 17.3642C116.843 17.3487 116.434 17.4573 116.082 17.676C115.937 17.7643 115.817 17.8894 115.735 18.0386C115.653 18.1878 115.611 18.3559 115.615 18.5261" fill="#271C47"/>
<path d="M128.17 23.0901C128.661 24.8664 129.993 25.7546 132.167 25.7548C133.565 25.7548 134.623 25.2823 135.341 24.3373L138.289 26.038C136.891 28.06 134.831 29.0709 132.11 29.0707C129.767 29.0707 127.887 28.3622 126.47 26.945C125.109 25.4979 124.349 23.5877 124.343 21.6011C124.338 19.6145 125.087 17.7 126.44 16.2452C127.838 14.8193 129.633 14.1063 131.825 14.1063C132.787 14.0787 133.743 14.2566 134.63 14.628C135.517 14.9995 136.314 15.556 136.969 16.2603C138.322 17.6994 139.05 19.6148 138.996 21.589C138.993 22.0929 138.945 22.5955 138.854 23.091L128.17 23.0901ZM128.114 20.2556H135.341C135.199 19.4002 134.739 18.6304 134.052 18.1013C133.406 17.6313 132.625 17.3829 131.827 17.393C130.952 17.3588 130.092 17.6237 129.389 18.1441C128.728 18.6751 128.276 19.4232 128.114 20.2556" fill="#271C47"/>
</svg>
